<svg width="55" height="51" viewBox="0 0 55 51" fill="none" xmlns="http://www.w3.org/2000/svg">
<g id="facebook">
<path id="Vector" d="M50.1037 0.910706H5.17966C2.94687 0.910706 1.1391 2.59189 1.1391 4.66831V46.4464C1.1391 48.4573 2.89399 50.0893 5.05627 50.0893H50.1037C52.266 50.0893 54.0209 48.4573 54.0209 46.4464V4.55356C54.0209 2.54271 52.266 0.910706 50.1037 0.910706Z" fill="#F2F6FF"/>
<path id="Vector_2" d="M6.03543 3.64282C4.95429 3.64282 4.07684 4.45882 4.07684 5.46425V49.1785C4.07684 49.459 4.11797 49.7286 4.18261 49.9909C4.46464 50.051 4.75451 50.0893 5.05614 50.0893H50.1036C52.2659 50.0893 54.0208 48.4573 54.0208 46.4464V4.55354C54.0208 4.27304 53.9796 4.00346 53.915 3.74118C53.633 3.68107 53.3431 3.64282 53.0415 3.64282H6.03543Z" fill="#3FDCFF"/>
<path id="Vector_3" d="M30.5178 50.0893V31.875H22.6835V24.5893H30.5178V15.4821C30.5178 11.4586 34.0256 8.19641 38.3522 8.19641H46.1865V15.4821H40.3107C39.2276 15.4821 38.3522 16.2963 38.3522 17.3036V24.5893H46.1865L45.2072 31.875H38.3522V50.0893H30.5178Z" fill="#F2F6FF"/>
<g id="Group">
<path id="Vector_4" d="M26.6006 51H5.05613C2.3572 51 0.159668 48.9582 0.159668 46.4464V13.6607C0.159668 13.158 0.598391 12.75 1.13896 12.75C1.67953 12.75 2.11825 13.158 2.11825 13.6607V46.4464C2.11825 47.9528 3.43638 49.1786 5.05613 49.1786H26.6006C27.1411 49.1786 27.5799 49.5866 27.5799 50.0893C27.5799 50.592 27.1411 51 26.6006 51Z" fill="#455A64"/>
<path id="Vector_5" d="M50.1036 51H38.3521C37.8115 51 37.3728 50.592 37.3728 50.0893V31.875C37.3728 31.3723 37.8115 30.9643 38.3521 30.9643H44.3434L45.0778 25.5H38.3521C37.8115 25.5 37.3728 25.092 37.3728 24.5893V17.3036C37.3728 15.7972 38.6909 14.5714 40.3106 14.5714H45.2071V9.10714H38.3521C34.572 9.10714 31.497 11.9668 31.497 15.4821V24.5893C31.497 25.092 31.0583 25.5 30.5177 25.5H23.6627V30.9643H30.5177C31.0583 30.9643 31.497 31.3723 31.497 31.875V50.0893C31.497 50.592 31.0583 51 30.5177 51C29.9771 51 29.5384 50.592 29.5384 50.0893V32.7857H22.6834C22.1428 32.7857 21.7041 32.3777 21.7041 31.875V24.5893C21.7041 24.0866 22.1428 23.6786 22.6834 23.6786H29.5384V15.4821C29.5384 10.9632 33.4928 7.28571 38.3521 7.28571H46.1864C46.727 7.28571 47.1657 7.69371 47.1657 8.19643V15.4821C47.1657 15.9849 46.727 16.3929 46.1864 16.3929H40.3106C39.7701 16.3929 39.3313 16.8027 39.3313 17.3036V23.6786H46.1864C46.4684 23.6786 46.7348 23.7915 46.9209 23.9864C47.1069 24.1813 47.1931 24.4436 47.1579 24.704L46.1786 31.9897C46.1178 32.4451 45.7007 32.7857 45.2071 32.7857H39.3313V49.1786H50.1036C51.7233 49.1786 53.0414 47.9527 53.0414 46.4464V4.55357C53.0414 3.04725 51.7233 1.82143 50.1036 1.82143H5.0561C3.43635 1.82143 2.11822 3.04725 2.11822 4.55357V6.375C2.11822 6.87771 1.6795 7.28571 1.13893 7.28571C0.598361 7.28571 0.159637 6.87771 0.159637 6.375V4.55357C0.159637 2.04182 2.35717 0 5.0561 0H50.1036C52.8025 0 55 2.04182 55 4.55357V46.4464C55 48.9582 52.8025 51 50.1036 51Z" fill="#455A64"/>
</g>
<g id="Group_2">
<g id="Group_3">
<g id="Group_4">
<g id="Group_5">
<g id="Group_6">
<g id="Group_7">
<path id="Vector_6" d="M2.11824 10.0179C2.11824 10.5188 1.67756 10.9286 1.13895 10.9286C0.600346 10.9286 0.159668 10.5188 0.159668 10.0179C0.159668 9.517 0.600346 9.10718 1.13895 9.10718C1.67756 9.10718 2.11824 9.517 2.11824 10.0179Z" fill="#455A64"/>
</g>
</g>
</g>
</g>
</g>
</g>
</g>
</svg>
