<svg width="228" height="19" viewBox="0 0 228 19" fill="none" xmlns="http://www.w3.org/2000/svg">
<path id="findme-on-socials-blob" d="M0.752808 16.1878L18.8651 6.59566C20.1647 5.90736 20.8146 5.56322 21.4859 5.28701C22.846 4.72743 24.2809 4.37091 25.7448 4.22889C26.4673 4.15879 27.2026 4.15879 28.6733 4.15879L56.0419 4.15879C60.8989 4.15879 63.8197 9.54593 61.1695 13.6162V13.6162C60.1157 15.2345 58.3599 16.2604 56.4326 16.3837L36.3423 17.6694C30.3649 18.0519 27.9338 10.1255 33.0976 7.09083V7.09083C33.9711 6.57749 34.9659 6.30682 35.9791 6.30682L100.675 6.30682C100.895 6.30682 101.115 6.32675 101.332 6.36637L112.056 8.32706C114.012 8.68476 114.982 6.04279 113.258 5.0502V5.0502C111.624 4.10897 112.397 1.60526 114.278 1.74966L145.65 4.15879L202.826 4.15879L227.106 1.15155" stroke="#EDA03A"/>
</svg>
