<svg width="59" height="51" viewBox="0 0 59 51" fill="none" xmlns="http://www.w3.org/2000/svg">
<g id="Github">
<path id="Vector" d="M29.6225 49.557C45.3071 49.557 58.022 38.6513 58.022 25.1985C58.022 11.7457 45.3071 0.839966 29.6225 0.839966C13.9379 0.839966 1.22302 11.7457 1.22302 25.1985C1.22302 38.6513 13.9379 49.557 29.6225 49.557Z" fill="#F2F6FF"/>
<path id="Vector_2" d="M58.022 25.1985C58.022 22.9491 57.6381 20.7787 56.9722 18.7107C52.7926 9.72158 42.5727 3.3598 30.6018 3.3598C14.9175 3.3598 2.20233 14.2657 2.20233 27.7183C2.20233 29.9677 2.58621 32.1381 3.25213 34.2061C7.43175 43.1952 17.6517 49.557 29.6225 49.557C45.3069 49.557 58.022 38.6511 58.022 25.1985Z" fill="#3FDCFF"/>
<g id="Group">
<path id="Vector_3" d="M39.3176 48.0687C38.0366 48.4668 36.6754 47.6487 36.6793 46.4795C36.6891 44.4182 36.6989 41.9824 36.6989 40.2806C36.6989 37.9993 35.7901 36.5076 34.7717 35.7516C41.0979 35.1469 47.7375 33.0789 47.7375 23.6849C47.7375 21.0139 46.6388 18.8317 44.8173 17.1216C45.1111 16.5017 46.0845 14.0171 44.5352 10.6489C44.5352 10.6489 42.1556 9.99206 36.7342 13.1553C34.4661 12.6127 32.0355 12.3422 29.6245 12.3322C27.2096 12.3422 24.7809 12.6127 22.5149 13.1553C17.0896 9.99374 14.704 10.6506 14.704 10.6506C13.1607 14.0171 14.1341 16.5033 14.4279 17.1232C12.6103 18.8334 11.5037 21.0156 11.5037 23.6866C11.5037 33.0571 18.1335 35.1553 24.4401 35.7718C23.6273 36.3833 22.8929 37.4618 22.6363 39.0409C21.0165 39.6675 16.9055 40.7477 14.3691 37.0099C14.3691 37.0099 12.8688 34.6631 10.021 34.49C10.021 34.49 7.24572 34.4598 9.82518 35.9767C9.82518 35.9767 11.6878 36.7293 12.9765 39.5532C12.9765 39.5532 14.6433 44.3107 22.5442 42.8324C22.5501 43.7093 22.5579 45.1137 22.5658 46.4761C22.5717 47.642 21.2183 48.4735 19.9413 48.0754C17.1307 47.2001 14.5258 45.957 12.2068 44.4132C17.0191 47.6252 23.0535 49.557 29.6226 49.557C36.0448 49.557 41.9499 47.7058 46.7093 44.6215C44.4765 46.0645 41.993 47.2354 39.3176 48.0687Z" fill="#F2F6FF"/>
</g>
<path id="Vector_4" d="M20.5995 49.0127C20.2646 49.0127 19.9297 48.964 19.6084 48.8632C7.48088 45.0902 -0.288827 35.1284 0.273287 24.073C0.29679 23.611 0.727679 23.2582 1.29371 23.27C1.83428 23.2901 2.25342 23.6832 2.22991 24.1452C1.70501 34.4631 8.95766 43.7614 20.2763 47.2808C20.5721 47.3748 20.8992 47.3362 21.1636 47.1749C21.4358 47.0103 21.5905 46.7549 21.5886 46.4744L21.5729 43.8319C13.8815 44.7743 12.0601 39.8422 12.0405 39.7901C10.9593 37.4298 9.41205 36.7327 9.39638 36.726C8.72654 36.3413 7.44563 35.5903 7.80992 34.6059C8.13701 33.7189 9.47864 33.6601 10.0349 33.645C13.435 33.85 15.1585 36.4891 15.229 36.6016C17.1015 39.3617 19.9571 39.0308 21.7609 38.4394C21.9372 37.6801 22.229 36.9897 22.6208 36.3967C16.9957 35.5803 10.5245 33.0822 10.5245 23.6832C10.5245 21.1113 11.4627 18.8451 13.3136 16.9367C12.9062 15.8045 12.3969 13.3888 13.7914 10.3431C13.8992 10.108 14.1244 9.9282 14.4045 9.85093C14.6865 9.77197 17.2895 9.18905 22.6893 12.2465C24.881 11.7576 27.2117 11.5039 29.6207 11.4939C32.0376 11.5039 34.3664 11.7576 36.56 12.2465C41.9579 9.18905 44.551 9.77197 44.837 9.85093C45.1171 9.9282 45.3403 10.108 45.4481 10.3415C46.8485 13.3871 46.3412 15.8028 45.9318 16.9384C47.7807 18.8417 48.7169 21.1079 48.7169 23.6849C48.7169 33.0839 42.2379 35.5752 36.6031 36.3833C37.2964 37.4298 37.6784 38.7788 37.6784 40.2806C37.6784 41.9824 37.6686 44.4216 37.6588 46.4828C37.6588 46.7617 37.8096 47.012 38.0779 47.1749C38.3462 47.3362 38.6772 47.3748 38.9847 47.2808C49.7863 43.9142 57.0429 35.0393 57.0429 25.1985C57.0429 18.709 54.0267 12.6664 48.5524 8.18279C43.0801 3.7025 35.896 1.40104 28.3085 1.70678C27.7699 1.74206 27.3116 1.36912 27.2841 0.907146C27.2587 0.443494 27.6759 0.0503979 28.2164 0.0285592C36.3485 -0.290622 44.0418 2.16875 49.9039 6.96822C55.7718 11.7711 59.0015 18.2454 59.0015 25.1985C59.0015 35.7432 51.2259 45.2514 39.6546 48.8582C38.7477 49.1387 37.7391 49.0245 36.9517 48.5474C36.1663 48.072 35.6982 47.2976 35.7021 46.4761C35.7119 44.4165 35.7217 41.9807 35.7217 40.2806C35.7217 37.8296 34.6112 36.7411 34.1333 36.3883C33.8395 36.1699 33.722 35.8222 33.8376 35.5047C33.9531 35.1855 34.2783 34.9553 34.6641 34.9184C40.6456 34.3472 46.7603 32.5648 46.7603 23.6866C46.7603 21.3683 45.8633 19.3491 44.0966 17.691C43.842 17.4508 43.7696 17.1081 43.9125 16.8074C44.1848 16.2362 44.9388 14.2254 43.8303 11.4351C43.0018 11.4552 40.8865 11.7526 37.2886 13.8541C37.0497 13.9936 36.7519 14.0372 36.4738 13.9684C34.3507 13.461 31.9828 13.1872 29.6207 13.1754C27.2352 13.1855 24.9299 13.4526 22.7774 13.9684C22.5013 14.0389 22.2036 13.9936 21.9627 13.8541C18.3785 11.7627 16.2632 11.4569 15.4092 11.4384C14.3066 14.2287 15.0626 16.2345 15.3329 16.8074C15.4739 17.1081 15.4034 17.4508 15.1487 17.6893C13.3782 19.3541 12.4812 21.3717 12.4812 23.6866C12.4812 32.5598 18.5821 34.3539 24.55 34.9369C24.9338 34.9738 25.257 35.2023 25.3726 35.5198C25.4881 35.8356 25.3745 36.1833 25.0847 36.4017C24.6459 36.7327 23.8684 37.5306 23.604 39.1568C23.5589 39.4423 23.3435 39.6876 23.036 39.8052C21.567 40.373 16.5413 41.8832 13.5212 37.4315C13.4996 37.3996 12.4929 35.8843 10.693 35.4392C11.3315 35.8054 12.8024 36.8704 13.8874 39.2441C13.9716 39.4675 15.47 43.291 22.3348 42.0092C22.6247 41.9572 22.9243 42.0143 23.1554 42.1739C23.3866 42.3318 23.5217 42.572 23.5237 42.824L23.5452 46.4694C23.5491 47.2942 23.081 48.0737 22.2897 48.5508C21.7884 48.8548 21.1969 49.0127 20.5995 49.0127Z" fill="#455A64"/>
<path id="Vector_5" d="M29.1075 50.397C12.9237 50.397 0.243774 39.3281 0.243774 25.1985C0.243774 19.1021 2.6685 13.2527 7.06945 8.72875C7.41416 8.37262 8.03503 8.3239 8.44829 8.62292C8.86351 8.92026 8.92031 9.44943 8.57364 9.80557C4.46453 14.0272 2.20236 19.4935 2.20236 25.1985C2.20236 38.3874 14.0205 48.7171 29.1075 48.7171C44.5117 48.7171 57.0428 38.1673 57.0428 25.1985C57.0428 12.2297 44.5117 1.6799 29.1075 1.6799C24.3265 1.6799 19.6827 2.72144 15.6755 4.69028C15.2093 4.91706 14.608 4.77931 14.3397 4.37782C14.0714 3.97464 14.234 3.46227 14.7021 3.23045C19.0051 1.11713 23.9877 0 29.1075 0C45.5909 0 59.0013 11.304 59.0013 25.1985C59.0013 39.0929 45.5909 50.397 29.1075 50.397Z" fill="#455A64"/>
<g id="Group_2">
<g id="Group_3">
<g id="Group_4">
<g id="Group_5">
<g id="Group_6">
<g id="Group_7">
<path id="Vector_6" d="M13.0588 5.96702C13.0588 6.429 12.6181 6.80697 12.0795 6.80697C11.5409 6.80697 11.1002 6.429 11.1002 5.96702C11.1002 5.50505 11.5409 5.12708 12.0795 5.12708C12.6181 5.12708 13.0588 5.50337 13.0588 5.96702Z" fill="#455A64"/>
</g>
</g>
</g>
</g>
</g>
</g>
</g>
</svg>
