<svg width="59" height="51" viewBox="0 0 59 51" fill="none" xmlns="http://www.w3.org/2000/svg">
<g id="LinkedIn">
<path id="LinkedIn_3_" d="M7.80106 12.5135H7.71684C3.62928 12.5135 0.979309 9.96266 0.979309 6.72699C0.979309 3.42974 3.70762 0.931152 7.87941 0.931152C12.0453 0.931152 14.6091 3.42228 14.6894 6.71766C14.6894 9.95146 12.0453 12.5135 7.80106 12.5135Z" fill="#F2F6FF"/>
<path id="Vector" d="M14.6893 6.71953C14.6404 4.69304 13.6454 2.97631 11.9219 1.95C11.5615 1.90895 11.205 1.86603 10.8172 1.86603C6.64542 1.86603 3.91711 4.36462 3.91711 7.66186C3.91711 9.66223 4.93558 11.3958 6.6748 12.4314C7.0156 12.4706 7.35443 12.5135 7.71677 12.5135H7.80099C12.0452 12.5135 14.6893 9.95146 14.6893 6.71953Z" fill="#3FDCFF"/>
<path id="Vector_2" d="M7.80105 13.4465H7.71683C3.24538 13.4465 0 10.6213 0 6.72884C0 2.83074 3.31393 0 7.87939 0C12.3685 0 15.5727 2.75423 15.6687 6.69712C15.6687 10.6176 12.3606 13.4465 7.80105 13.4465ZM7.87939 1.86601C4.39311 1.86601 1.95859 3.86638 1.95859 6.72884C1.95859 9.58571 4.32652 11.5823 7.71683 11.5823H7.80105C11.2815 11.5805 13.7101 9.58198 13.7101 6.71951C13.6376 3.77868 11.35 1.86601 7.87939 1.86601Z" fill="#455A64"/>
<path id="Vector_3" d="M12.7308 16.4788H2.93787V50.067H12.7308V16.4788Z" fill="#F2F6FF"/>
<path id="Vector_4" d="M12.7308 50.067H5.87579V19.2778C5.87579 18.2477 6.75128 17.4117 7.83438 17.4117H12.7308V50.067Z" fill="#3FDCFF"/>
<path id="Vector_5" d="M12.7308 51H2.93785C2.39728 51 1.95856 50.582 1.95856 50.067V16.4788C1.95856 15.9638 2.39728 15.5458 2.93785 15.5458H12.7308C13.2713 15.5458 13.7101 15.9638 13.7101 16.4788V50.067C13.7101 50.582 13.2713 51 12.7308 51ZM3.91714 49.134H11.7515V17.4118H3.91714V49.134Z" fill="#455A64"/>
<path id="Vector_6" d="M44.0681 16.4788C39.2559 16.4788 34.996 18.6956 32.3166 22.1029V16.4788H20.5651V50.067H29.3788H32.3166V32.3399C32.3166 28.7329 35.3857 25.8088 39.1717 25.8088C42.9576 25.8088 46.0267 28.7329 46.0267 32.3399V50.067H57.7782V29.5409C57.7782 22.3268 51.64 16.4788 44.0681 16.4788Z" fill="#F2F6FF"/>
<path id="Vector_7" d="M44.5069 19.2871C40.8169 19.4158 37.4834 20.8452 34.9764 23.1049C34.3379 23.6797 33.2959 23.2916 33.2959 22.4556V20.9926C32.9512 21.3472 32.6202 21.7148 32.3166 22.1029V17.4117H25.4616C24.3785 17.4117 23.503 18.2477 23.503 19.2778V50.067H29.3787H32.3166V32.3398C32.3166 28.7328 35.3857 25.8088 39.1717 25.8088C41.2811 25.8088 43.1456 26.7381 44.405 28.1674C45.9856 29.3636 47.006 31.1997 47.006 33.2729V50.067H57.7782V29.5408C57.7782 28.8467 57.7058 28.1712 57.5941 27.5069C55.4044 22.6049 50.3513 19.0837 44.5069 19.2871Z" fill="#3FDCFF"/>
<path id="Vector_8" d="M57.7783 51H46.0268C45.4862 51 45.0475 50.582 45.0475 50.067V32.3399C45.0475 29.2535 42.4112 26.7419 39.1717 26.7419C35.9322 26.7419 33.296 29.2535 33.296 32.3399V50.067C33.296 50.582 32.8573 51 32.3167 51H20.5652C20.0246 51 19.5859 50.582 19.5859 50.067V16.4788C19.5859 15.9638 20.0246 15.5458 20.5652 15.5458H32.3167C32.8573 15.5458 33.296 15.9638 33.296 16.4788V22.1029C33.296 22.618 32.8573 23.036 32.3167 23.036C31.7761 23.036 31.3374 22.618 31.3374 22.1029V17.4118H21.5445V49.134H31.3374V32.3399C31.3374 28.2235 34.8511 24.8758 39.1717 24.8758C43.4924 24.8758 47.0061 28.2235 47.0061 32.3399V49.134H56.799V29.5409C56.799 22.8531 51.0878 17.4118 44.0682 17.4118C41.3575 17.4118 38.7369 18.1694 36.4865 19.6006C36.038 19.8843 35.4289 19.7723 35.1292 19.3431C34.8295 18.9139 34.949 18.3355 35.4015 18.05C37.9731 16.4116 40.9697 15.5458 44.0682 15.5458C52.1689 15.5458 58.7576 21.823 58.7576 29.5409V50.067C58.7576 50.582 58.3189 51 57.7783 51Z" fill="#455A64"/>
</g>
</svg>
