<svg width="67" height="51" viewBox="0 0 67 51" fill="none" xmlns="http://www.w3.org/2000/svg">
<g id="Twitter">
<path id="Twitter_3_" d="M65.278 6.81C62.9389 7.79416 60.4176 8.45974 57.7755 8.756C60.4747 7.22801 62.5458 4.80514 63.5209 1.91961C60.9952 3.33397 58.2015 4.3648 55.2168 4.91675C52.8404 2.51417 49.4406 1.01459 45.6805 1.01459C38.4701 1.01459 32.6192 6.55026 32.6192 13.3765C32.6192 14.3465 32.7312 15.286 32.9553 16.193C22.0968 15.6756 12.4705 10.7588 6.02225 3.27106C4.89775 5.10141 4.25424 7.22801 4.25424 9.49261C4.25424 13.7803 6.56253 17.5648 10.0678 19.7807C7.93082 19.7198 5.91024 19.1577 4.14662 18.2385V18.3907C4.14662 24.3809 8.6512 29.3788 14.6317 30.5111C13.5357 30.8013 12.3805 30.9474 11.1879 30.9474C10.3467 30.9474 9.52532 30.8723 8.72587 30.7282C10.3907 35.6389 15.2137 39.2144 20.9328 39.3097C16.4612 42.6275 10.8233 44.606 4.70448 44.606C3.65026 44.606 2.60703 44.5491 1.58575 44.4355C7.36857 47.9379 14.2407 49.9854 21.6181 49.9854C45.6564 49.9854 58.7945 31.1503 58.7945 14.8132C58.7945 14.2754 58.7836 13.7377 58.7616 13.2101C61.3159 11.467 63.5341 9.28968 65.278 6.81Z" fill="#F2F6FF"/>
<path id="Vector" d="M63.0004 3.0824C60.5055 4.51502 58.1708 7.41475 55.219 7.96061C52.8426 5.55803 49.4428 4.05844 45.6828 4.05844C39.5288 4.05844 34.3104 8.14121 34.1259 14.795C34.093 15.9658 33.1112 16.9317 31.8462 16.9987C26.1622 17.2949 11.5877 15.8948 4.5925 6.79787C4.38604 7.66637 4.25207 8.56328 4.25207 9.49266C4.25207 13.7804 6.56037 17.5648 10.0656 19.7807C7.92865 19.7198 5.90807 19.1578 4.14445 18.2385V18.3907C4.14445 24.3809 8.64903 29.3789 14.6295 30.5112C13.5336 30.8013 12.3783 30.9474 11.1857 30.9474C10.3446 30.9474 9.52315 30.8724 8.7237 30.7283C10.3885 35.639 15.2115 39.2144 20.9306 39.3098C16.459 42.6275 10.8212 44.606 4.70231 44.606C3.64809 44.606 2.60486 44.5492 1.58359 44.4356C7.3664 47.938 14.2386 49.9854 21.6159 49.9854C45.6542 49.9854 58.7924 31.1504 58.7924 14.8132C58.7924 14.2755 58.7814 13.7378 58.7594 13.2102C61.3137 11.4671 63.5298 9.29176 65.2758 6.81208C62.9368 7.79624 60.4154 8.46182 57.7733 8.75808C60.097 7.44316 61.9045 5.44439 63.0004 3.0824Z" fill="#3FDCFF"/>
<path id="Vector_2" d="M21.6181 51C14.2957 51 7.15996 49.0236 0.984008 45.2837C0.557929 45.026 0.38003 44.5289 0.553536 44.0885C0.729239 43.6462 1.20144 43.3743 1.71757 43.4291C2.68613 43.5386 3.69203 43.5934 4.70451 43.5934C8.671 43.5934 12.4662 42.7472 15.9846 41.0772C16.6786 40.7485 17.3595 40.3873 18.0206 39.9977C13.2063 38.9648 9.22666 35.6024 7.67828 31.0347C7.49599 30.499 7.81884 29.9308 8.39866 29.7644C8.97628 29.5939 9.59344 29.8943 9.77353 30.43C11.3395 35.0525 15.8331 38.214 20.9526 38.2992C21.416 38.3073 21.8223 38.5813 21.9717 38.9851C22.121 39.3889 21.9805 39.8353 21.6203 40.1032C20.1795 41.1726 18.6202 42.108 16.9883 42.8832C13.5358 44.5208 9.84162 45.4319 5.98495 45.5962C10.8497 47.8162 16.1779 48.9749 21.6181 48.9749C44.2025 48.9749 57.6964 31.6069 57.6964 14.8173C57.6964 14.2937 57.6855 13.7682 57.6657 13.2527C57.6525 12.9179 57.8172 12.5993 58.1115 12.3985C60.5736 10.7183 62.6776 8.65254 64.36 6.26417C64.6894 5.79542 65.3725 5.65744 65.8776 5.96791C66.3849 6.27229 66.5299 6.90134 66.1983 7.37009C64.4786 9.81325 62.3548 11.9439 59.8774 13.7093C59.8861 14.0766 59.8927 14.448 59.8927 14.8173C59.8927 32.5992 45.5774 51 21.6181 51Z" fill="#455A64"/>
<path id="Vector_3" d="M14.6317 31.5278C14.5592 31.5278 14.4845 31.5217 14.4098 31.5075C7.82538 30.2616 3.04626 24.7441 3.04626 18.3927C3.04626 17.8327 3.53823 17.301 4.14441 17.301C4.75058 17.301 5.24255 17.6785 5.24255 18.2385V18.3907C5.24255 23.7843 9.28371 28.4637 14.8513 29.5168C15.4465 29.6284 15.8286 30.1662 15.7056 30.7141C15.6002 31.197 15.1434 31.5278 14.6317 31.5278Z" fill="#455A64"/>
<path id="Vector_4" d="M10.0656 20.7953C9.85256 20.7953 9.63513 20.7385 9.44625 20.6187C5.50612 18.1269 3.1539 13.967 3.1539 9.49261C3.1539 7.13264 3.81498 4.80717 5.06467 2.76985C5.24476 2.47562 5.56981 2.28487 5.93439 2.25849C6.30996 2.23211 6.65258 2.37416 6.8788 2.63795C13.3271 10.1237 22.8524 14.6935 33.0124 15.1764C33.6163 15.2048 34.0842 15.6837 34.0534 16.2417C34.0227 16.7998 33.4802 17.2218 32.9004 17.2036C22.6811 16.7166 13.0679 12.3396 6.26823 5.12779C5.66645 6.50562 5.35238 7.98897 5.35238 9.49058C5.35238 13.2953 7.3466 16.8282 10.6872 18.9426C11.1879 19.2592 11.3153 19.8903 10.9727 20.3529C10.7596 20.6411 10.417 20.7953 10.0656 20.7953Z" fill="#455A64"/>
<path id="Vector_5" d="M32.6544 13.4881C32.6281 13.4881 32.6017 13.4881 32.5754 13.4861C31.9714 13.4475 31.5146 12.9626 31.5585 12.4025C32.09 5.44842 38.2923 0 45.6806 0C49.3857 0 52.9591 1.37986 55.588 3.80679C58.1731 3.26702 60.6483 2.3417 62.9522 1.05316C63.3431 0.836032 63.8395 0.862411 64.1975 1.12215C64.5577 1.38189 64.7048 1.8202 64.5686 2.22198C63.5232 5.31449 61.3138 7.94231 58.3488 9.62046C57.8326 9.91267 57.154 9.7625 56.8377 9.28564C56.5193 8.80878 56.684 8.18378 57.2001 7.88955C58.8385 6.96017 60.2046 5.69192 61.2039 4.19234C59.3525 4.96546 57.4219 5.54176 55.4321 5.90904C55.0587 5.98007 54.6656 5.86237 54.4064 5.59858C52.1618 3.3279 48.9794 2.02718 45.6806 2.02718C39.441 2.02718 34.1984 6.64565 33.7482 12.5425C33.7087 13.0803 33.2277 13.4881 32.6544 13.4881Z" fill="#455A64"/>
</g>
</svg>
